<svg xmlns="http://www.w3.org/2000/svg" aria-hidden="true" style="position:absolute;width:0;height:0;overflow:hidden">
  <defs>
    <symbol id="fav-dark-monogram" viewBox="0 0 128 128">
      <rect width="128" height="128" rx="24" fill="#0b0b0b"/>
      <rect x="10" y="10" width="108" height="108" rx="20" fill="none" stroke="rgba(245,245,245,0.22)" stroke-width="2"/>
      <path d="M44 88V40h20c12 0 20 6 20 16 0 9-6 14-15 15l18 17h-12L59 72h-5v16H44zm10-26h9c7 0 11-3 11-8s-4-8-11-8h-9v16z" fill="#f5f5f5"/>
    </symbol>
    <symbol id="fav-accent-ring" viewBox="0 0 128 128">
      <defs>
        <linearGradient id="accent-ring" x1="18" y1="18" x2="110" y2="110" gradientUnits="userSpaceOnUse">
          <stop offset="0" stop-color="#8cf4ff"/>
          <stop offset="1" stop-color="#7ef8c0"/>
        </linearGradient>
      </defs>
      <rect width="128" height="128" rx="28" fill="#050505"/>
      <rect x="10" y="10" width="108" height="108" rx="24" fill="none" stroke="url(#accent-ring)" stroke-width="3"/>
      <path d="M46 34h24c14 0 24 9 24 22s-10 22-24 22H62v16H46V34zm16 14v16h8c6 0 10-4 10-8 0-6-4-8-10-8h-8z" fill="#eafcf7"/>
    </symbol>
    <symbol id="fav-light-frame" viewBox="0 0 128 128">
      <rect width="128" height="128" rx="26" fill="#f5f5f5"/>
      <rect x="12" y="12" width="104" height="104" rx="22" fill="none" stroke="#0b0b0b" stroke-width="3"/>
      <path d="M38 94V34h26c18 0 28 10 28 24 0 12-7 20-20 23l18 13h-15L65 82H54v12H38zm16-22h8c9 0 14-5 14-12s-5-12-14-12h-8v24z" fill="#0b0b0b"/>
      <path d="M86 98c0-4 4-8 8-8s8 4 8 8-4 8-8 8-8-4-8-8z" fill="#0b0b0b" fill-opacity=".84"/>
    </symbol>
    <symbol id="fav-slash-lime" viewBox="0 0 128 128">
      <rect width="128" height="128" rx="30" fill="#0b0b0b"/>
      <path d="M20 34c0-6 4-10 10-10h68c6 0 10 4 10 10v60c0 6-4 10-10 10H30c-6 0-10-4-10-10V34z" fill="none" stroke="#2de0a9" stroke-width="4"/>
      <path d="M44 90c-3 0-6-3-6-6V44c0-3 3-6 6-6h12c12 0 18 7 18 17 0 10-6 17-18 17H52v12c0 3-3 6-6 6zM56 58h2c6 0 9-2 9-7s-3-7-9-7h-2v14z" fill="#f5f5f5"/>
      <path d="M64 92l22-56c1.4-3.3 6.2-3.3 7.6 0L98 45l-22 56c-1.4 3.3-6.2 3.3-7.6 0L64 92z" fill="#2de0a9"/>
    </symbol>
  </defs>
</svg>
