<svg xmlns="http://www.w3.org/2000/svg" viewBox="0 0 128 128">
  <rect width="128" height="128" rx="30" fill="#0b0b0b"/>
  <path d="M20 34c0-6 4-10 10-10h68c6 0 10 4 10 10v60c0 6-4 10-10 10H30c-6 0-10-4-10-10V34z" fill="none" stroke="#2de0a9" stroke-width="4"/>
  <path d="M44 90c-3 0-6-3-6-6V44c0-3 3-6 6-6h12c12 0 18 7 18 17 0 10-6 17-18 17H52v12c0 3-3 6-6 6zM56 58h2c6 0 9-2 9-7s-3-7-9-7h-2v14z" fill="#f5f5f5"/>
  <path d="M64 92l22-56c1.4-3.3 6.2-3.3 7.6 0L98 45l-22 56c-1.4 3.3-6.2 3.3-7.6 0L64 92z" fill="#2de0a9"/>
</svg>
